<?xml version="1.0"?>
<svg xmlns="http://www.w3.org/2000/svg" height="512px" viewBox="0 0 512.00003 512.00003" width="512px"><path d="m469.332031 0h-426.664062c-23.554688.0273438-42.6406252 19.113281-42.667969 42.667969v358.398437c.0273438 23.550782 19.113281 42.640625 42.667969 42.667969h136.53125v17.066406h-34.132813c-18.851562 0-34.132812 15.28125-34.132812 34.132813v8.53125c0 4.714844 3.820312 8.535156 8.53125 8.535156h273.070312c4.710938 0 8.53125-3.820312 8.53125-8.535156v-8.53125c0-18.851563-15.28125-34.132813-34.132812-34.132813h-34.132813v-17.066406h136.53125c23.554688-.027344 42.640625-19.117187 42.667969-42.667969v-358.398437c-.027344-23.554688-19.113281-42.6406252-42.667969-42.667969zm-85.332031 494.933594h-256c0-9.425782 7.640625-17.066406 17.066406-17.066406h221.867188c9.425781 0 17.066406 7.640624 17.066406 17.066406zm-187.734375-34.132813v-17.066406h119.46875v17.066406zm-153.597656-443.734375h426.664062c14.140625 0 25.601563 11.460938 25.601563 25.601563v315.730469h-477.867188v-315.730469c0-14.140625 11.460938-25.601563 25.601563-25.601563zm426.664062 409.601563h-426.664062c-14.140625 0-25.601563-11.460938-25.601563-25.601563v-25.601562h477.867188v25.601562c0 14.140625-11.460938 25.601563-25.601563 25.601563zm0 0" fill="#61dafb"/><path d="m51.199219 341.332031h252.46875c6.902343 0 13.121093-4.160156 15.761719-10.535156 2.644531-6.375 1.183593-13.714844-3.695313-18.597656l-252.46875-252.464844c-4.878906-4.878906-12.21875-6.339844-18.597656-3.699219-6.375 2.640625-10.53125 8.863282-10.535157 15.765625v252.464844c0 9.425781 7.640626 17.066406 17.066407 17.066406zm0-269.53125 252.46875 252.464844h-252.46875zm0 0" fill="#61dafb"/><path d="m227.898438 284.101562-136.53125-136.535156c-2.441407-2.4375-6.109376-3.167968-9.300782-1.847656-3.1875 1.320312-5.265625 4.429688-5.265625 7.882812v136.53125c0 4.714844 3.820313 8.535157 8.53125 8.535157h136.535157c3.449218-.003907 6.5625-2.082031 7.882812-5.269531s.589844-6.859376-1.851562-9.296876zm-134.03125-2.5v-107.402343l107.398437 107.402343zm0 0" fill="#61dafb"/><path d="m281.601562 162.132812h13.226563c6.046875 15.238282 15.007813 29.148438 26.375 40.960938l1.929687 2.125c9.957032 10.957031 21.035157 23.246094 23.5 36.691406-8.472656 4.371094-13.804687 13.09375-13.832031 22.625v17.066406c.027344 7.507813 3.375 14.625 9.136719 19.4375-2.574219 13.5 3.191406 27.226563 14.636719 34.832032 11.445312 7.605468 26.335937 7.605468 37.785156 0 11.445313-7.605469 17.210937-21.332032 14.632813-34.832032 5.765624-4.8125 9.113281-11.929687 9.140624-19.4375v-17.066406c-.035156-9.527344-5.367187-18.242187-13.832031-22.605468 2.476563-13.464844 13.542969-25.753907 23.5-36.695313l1.929688-2.125c11.371093-11.816406 20.328125-25.734375 26.375-40.976563h13.226562c4.714844 0 8.535157-3.820312 8.535157-8.53125 0-4.714843-3.820313-8.535156-8.535157-8.535156h-9.136719c.367188-2.828125.570313-5.679687.605469-8.53125.003907-8.117187-1.144531-16.195312-3.414062-23.988281l6.136719-2.046875c2.894531-.964844 5.058593-3.402344 5.671874-6.390625.613282-2.988281-.414062-6.078125-2.699218-8.105469-2.28125-2.027344-5.472656-2.683594-8.367188-1.71875l-7.152344 2.390625c-4-7.542969-9.105468-14.445312-15.144531-20.480469-.855469-.855468-1.757812-1.578124-2.621093-2.382812l8.046874-8.046875c2.21875-2.140625 3.109376-5.3125 2.328126-8.296875s-3.109376-5.316406-6.09375-6.09375c-2.984376-.78125-6.15625.105469-8.300782 2.324219l-9.785156 9.761719c-10.773438-6.535157-22.871094-10.582032-35.40625-11.84375v-17.484376c0-4.710937-3.820312-8.53125-8.535156-8.53125-4.710938 0-8.53125 3.820313-8.53125 8.53125v17.484376c-12.535156 1.261718-24.632813 5.308593-35.40625 11.84375l-9.761719-9.761719c-3.347656-3.234375-8.667969-3.1875-11.960937.105469-3.292969 3.292968-3.339844 8.613281-.105469 11.960937l8.046875 8.046875c-.851563.804688-1.773438 1.546875-2.617188 2.382812-6.039062 6.035157-11.144531 12.9375-15.148437 20.480469l-7.152344-2.390625c-4.476563-1.488281-9.3125.933594-10.800781 5.410156-1.488282 4.476563.933594 9.3125 5.410156 10.804688l6.136719 2.046875c-2.28125 7.792969-3.4375 15.867187-3.441407 23.988281.035157 2.851563.238282 5.703125.605469 8.53125h-9.136719c-4.714843 0-8.535156 3.820313-8.535156 8.535156 0 4.710938 3.820313 8.53125 8.535156 8.53125zm110.933594 93.867188c4.710938 0 8.53125 3.820312 8.53125 8.535156v17.066406c0 4.710938-3.820312 8.53125-8.53125 8.53125h-34.136718c-4.710938 0-8.53125-3.820312-8.53125-8.53125v-17.066406c0-4.714844 3.820312-8.535156 8.53125-8.535156zm-17.070312 68.265625c-9.425782 0-17.066406-7.640625-17.066406-17.066406h34.136718c0 9.425781-7.644531 17.066406-17.070312 17.066406zm-48.269532-236.003906c19.523438-19.527344 48.886719-25.367188 74.394532-14.800781 25.511718 10.566406 42.144531 35.460937 42.144531 63.074218 0 22.613282-13.476563 40.539063-26.660156 55.097656l-1.902344 2.097657c-11.015625 12.128906-24.371094 26.933593-27.691406 45.226562h-24.027344c-3.320313-18.269531-16.675781-33.074219-27.691406-45.226562l-1.902344-2.097657c-13.183594-14.558593-26.660156-32.484374-26.660156-55.097656-.050781-18.117187 7.152343-35.5 19.996093-48.273437zm0 0" fill="#61dafb"/></svg>
